<svg xmlns="http://www.w3.org/2000/svg" viewBox="0 0 42.62 42.62"><defs><style>.cls-1{fill:#ffe7ad;}</style></defs><g id="Layer_2" data-name="Layer 2"><g id="ELEMENTS"><circle class="cls-1" cx="21.31" cy="21.31" r="21.31"/><path d="M25.45,12.86H17.16a4.28,4.28,0,0,0-4.27,4.28v8.28a4.28,4.28,0,0,0,4.27,4.28h8.29a4.28,4.28,0,0,0,4.27-4.28V17.14A4.28,4.28,0,0,0,25.45,12.86ZM21.39,26.39a5.11,5.11,0,1,1,5.11-5.11A5.11,5.11,0,0,1,21.39,26.39ZM26.8,17A1.22,1.22,0,1,1,28,15.83,1.22,1.22,0,0,1,26.8,17Zm-5.41,1a3.27,3.27,0,1,0,3.27,3.27A3.28,3.28,0,0,0,21.39,18Z"/><path d="M21.31,3.61A17.7,17.7,0,1,0,39,21.31,17.7,17.7,0,0,0,21.31,3.61ZM31.68,25.42a6.24,6.24,0,0,1-6.23,6.23H17.16a6.24,6.24,0,0,1-6.23-6.23V17.14a6.24,6.24,0,0,1,6.23-6.23h8.29a6.24,6.24,0,0,1,6.23,6.23Z"/></g></g></svg>