<svg id="Layer_1" data-name="Layer 1" xmlns="http://www.w3.org/2000/svg" viewBox="0 0 656.7 347.58"><defs><style>.cls-1{fill:#ffe7ad;}</style></defs><path class="cls-1" d="M428.18,429.8l10.3-1.9-.06,3.47L424.13,434l.5-22.67,13.69-2.53-.08,3.48-9.7,1.79-.13,5.86,8.32-1.53-.07,3.47-8.32,1.53Z" transform="translate(-70.39 -149.56)"/><path class="cls-1" d="M461.26,421.41l-7.76,1.43-2,6.12-4.44.82,8.15-24.09,3.72-.69,8.47,21-4.08.75Zm-6.55-2.26,5.31-1-.87-2.27c-.71-1.81-1.32-3.51-1.83-5.08l-.1,0q-.69,2.79-1.59,5.51Z" transform="translate(-70.39 -149.56)"/><path class="cls-1" d="M484.62,422.86l-4,.73.42-19.21-6.85,1.27.05-3.47L492,398.91l-.06,3.48-6.86,1.26Z" transform="translate(-70.39 -149.56)"/><path class="cls-1" d="M505.43,415.56l10.3-1.9-.07,3.48-14.29,2.63.5-22.68,13.7-2.52-.09,3.47-9.7,1.79-.13,5.87,8.33-1.54-.07,3.47-8.33,1.54Z" transform="translate(-70.39 -149.56)"/><path class="cls-1" d="M530.26,414.45l-4,.73.49-22.68,5.91-1.09c1-.17,1.77-.29,2.46-.35a9.49,9.49,0,0,1,1.85,0,5.89,5.89,0,0,1,3.52,1.38,5.14,5.14,0,0,1,1.58,3,7.86,7.86,0,0,1,.09,2.55,6,6,0,0,1-.77,2.3,7.27,7.27,0,0,1-1.73,2,11.43,11.43,0,0,1-2.76,1.63v.06l6.5,8.09-4.4.81-5.94-7.65-2.64.49Zm.27-12.26,1.54-.28c.73-.14,1.38-.28,1.94-.44a8.14,8.14,0,0,0,1.5-.55,5.2,5.2,0,0,0,2.2-1.83,3.52,3.52,0,0,0,.44-2.64,2.7,2.7,0,0,0-.61-1.31,2.15,2.15,0,0,0-1.34-.64,4.39,4.39,0,0,0-1,0,13.24,13.24,0,0,0-1.57.22l-2.9.53Z" transform="translate(-70.39 -149.56)"/><path class="cls-1" d="M557.89,409.35l.2-9.17-7.62-12.05,4.1-.75,5.28,8.51,4.48-10.31,4.54-.84-6.8,14.79-.19,9.09Z" transform="translate(-70.39 -149.56)"/><path class="cls-1" d="M605.1,382.39a5.39,5.39,0,0,1,0,2.34,6.47,6.47,0,0,1-.88,2,9.4,9.4,0,0,1-1.48,1.7c-.58.52-1.19,1-1.83,1.52l2,1.63,2.39,1.94a12.55,12.55,0,0,0,1-2.52,12.8,12.8,0,0,0,.44-2.69l3.73-.69a13.27,13.27,0,0,1-.58,4.14,16,16,0,0,1-1.85,4l1.41,1.13,1.27,1c.39.31.74.58,1.06.81l.78.59-4.88.9-.81-.64-1.17-.92a14.12,14.12,0,0,1-3.11,2.29,12.55,12.55,0,0,1-3.7,1.31,8.27,8.27,0,0,1-3,.06,6.11,6.11,0,0,1-2.23-.85,5,5,0,0,1-1.5-1.53,5.68,5.68,0,0,1-.75-1.95,6.64,6.64,0,0,1,.68-4.53,8.35,8.35,0,0,1,1.29-1.74,17,17,0,0,1,1.66-1.51,9.79,9.79,0,0,1-1.71-1.83,5.39,5.39,0,0,1-.94-2.2,5.84,5.84,0,0,1,.07-2.61,5.33,5.33,0,0,1,1.13-2.14,7,7,0,0,1,2-1.59,9.86,9.86,0,0,1,2.73-.92,8.7,8.7,0,0,1,2.46-.13,5.61,5.61,0,0,1,2,.55,4.32,4.32,0,0,1,1.46,1.22A4.44,4.44,0,0,1,605.1,382.39ZM595.38,397a2.35,2.35,0,0,0,1.12,1.76,3.2,3.2,0,0,0,2.19.25,7.61,7.61,0,0,0,2.31-.85,10.11,10.11,0,0,0,2.08-1.61l-1.38-1.11-1.38-1.1L599,393.25l-1.19-.94a12.61,12.61,0,0,0-1.12,1,6.06,6.06,0,0,0-.84,1.1,4.08,4.08,0,0,0-.46,1.2A3.26,3.26,0,0,0,595.38,397Zm1-11.66a3.11,3.11,0,0,0,.67,1.47,7.47,7.47,0,0,0,1.18,1.13c.47-.35.91-.69,1.32-1a7.64,7.64,0,0,0,1-1,4,4,0,0,0,.62-1.11,2.41,2.41,0,0,0,.07-1.23,1.56,1.56,0,0,0-.87-1.27,2.67,2.67,0,0,0-1.63-.14,3,3,0,0,0-2,1.1A2.64,2.64,0,0,0,596.37,385.31Z" transform="translate(-70.39 -149.56)"/><path class="cls-1" d="M651,375.08a5.2,5.2,0,0,1-.41,3.42,7,7,0,0,1-2.48,2.61v.07a4.29,4.29,0,0,1,1.42.34,4,4,0,0,1,1.13.72,3.75,3.75,0,0,1,.8,1,4.66,4.66,0,0,1,.43,1.29,6.17,6.17,0,0,1-.61,4.12,8.33,8.33,0,0,1-3.5,3.3,15.91,15.91,0,0,1-2.57,1.07,27,27,0,0,1-3.35.82l-6.2,1.14.49-22.68,6.09-1.12a17.22,17.22,0,0,1,2.36-.28,9.57,9.57,0,0,1,1.9.09,5.59,5.59,0,0,1,3,1.36A4.71,4.71,0,0,1,651,375.08Zm-11.12,9.34-.16,6.39,2.07-.38a12.43,12.43,0,0,0,4.08-1.32,4.21,4.21,0,0,0,1.76-1.84,3.5,3.5,0,0,0,.25-2.08,2,2,0,0,0-.57-1.12,2.29,2.29,0,0,0-1.32-.54,3.92,3.92,0,0,0-.92,0c-.35,0-.79.1-1.31.2Zm2.95-4a12,12,0,0,0,1.62-.4,4.64,4.64,0,0,0,1.07-.49,3.45,3.45,0,0,0,1.34-1.46,3.23,3.23,0,0,0,.2-1.94,2,2,0,0,0-1.8-1.7,5.26,5.26,0,0,0-1-.05,11.86,11.86,0,0,0-1.39.17l-2.77.52-.14,5.88Z" transform="translate(-70.39 -149.56)"/><path class="cls-1" d="M674.9,382l-7.75,1.43-2,6.12-4.44.82,8.16-24.09,3.72-.68,8.47,21-4.09.76Zm-6.54-2.25,5.31-1-.88-2.27q-1-2.73-1.83-5.08l-.1,0q-.68,2.79-1.58,5.5Z" transform="translate(-70.39 -149.56)"/><path class="cls-1" d="M695,384.08l-4,.74.5-22.68,5.91-1.09c1-.18,1.77-.29,2.46-.35a10.43,10.43,0,0,1,1.85,0,5.92,5.92,0,0,1,3.52,1.38,5.2,5.2,0,0,1,1.58,3,8.47,8.47,0,0,1,.09,2.55,6.14,6.14,0,0,1-.77,2.3,7.44,7.44,0,0,1-1.73,2,11.29,11.29,0,0,1-2.76,1.62v.07l6.5,8.08-4.41.82-5.93-7.65-2.64.48Zm.27-12.25,1.54-.29c.72-.13,1.37-.28,1.94-.43a8.12,8.12,0,0,0,1.5-.56,5.19,5.19,0,0,0,2.2-1.83,3.5,3.5,0,0,0,.44-2.64,2.67,2.67,0,0,0-.61-1.3,2.11,2.11,0,0,0-1.34-.65,5.1,5.1,0,0,0-1.05,0c-.42,0-.94.11-1.56.22l-2.91.54Z" transform="translate(-70.39 -149.56)"/><path class="cls-1" d="M116,209.76l-4,.74.43-19.21-6.86,1.27.06-3.47,17.71-3.27-.07,3.47-6.86,1.27Z" transform="translate(-70.39 -149.56)"/><path class="cls-1" d="M137,192.6l9.32-1.72.2-9.34,4-.73-.49,22.68-4,.73.23-9.87L137,196.07l-.23,9.87-4,.73.49-22.68,4-.73Z" transform="translate(-70.39 -149.56)"/><path class="cls-1" d="M165.73,197.13,176,195.24l-.07,3.47-14.29,2.63.5-22.68,13.7-2.52-.09,3.48-9.7,1.78-.13,5.87,8.33-1.54-.07,3.48-8.33,1.53Z" transform="translate(-70.39 -149.56)"/><path class="cls-1" d="M406.58,371c2.65-8.86,4.5-15.14,7.73-24.92q6.36-19.24,12.52-38.58,1.37-4.26,2.67-8.55a4.66,4.66,0,0,0,.24-3c-.52-1.42-2.2-2-3.68-2.34l-12.42-3.13c-1.72-.43-3.66-.84-5.19.05a6.77,6.77,0,0,0-2.48,3.56c-5.72,14.18-8.66,29.34-13.83,43.74-3.3,9.2-16.79,41.22-30.76,36.76-2-.63-3.13-2.85-3.17-4.94-.06-3,1.5-6.32,2.3-9.2,1.09-3.89,2.23-7.77,3.34-11.66q3.33-11.65,6.67-23.31,2.36-8.26,4.73-16.54c.37-1.29.71-2.77,0-3.9a4.77,4.77,0,0,0-2.86-1.63l-9.08-2.62c-7.34-2.13-9.55-1.38-12.45,11-4.5,19.08-7.91,39.44-19.49,55.84-4.6,6.51-11,14.83-19.25,16.52-7.36,1.51-5.71-7.82-4.79-12.17,1.36-6.44,3.15-12.81,5-19.12.74-2.51,1.56-5,2.37-7.47.74-2.26,1.65-3.65,2.11-5.85.19-.63.42-1.32.68-2,1.11-3.89,2.95-8,4.49-12,.64-1.67,1.23-3.32,1.7-4.95.37-1.3.71-2.78,0-3.91-2.41-3.67-9.1-3.27-12.81-4.49-5-1.62-7.45-3.87-9.94,2.62-1.38,3.59-3,8.75-4.62,14.19.25-.87-3.21-4.3-3.81-4.89a17.72,17.72,0,0,0-6.78-3.93C272.92,316,259.28,319,250.19,329c-8.63,9.42-13,22.27-16.08,34.43a109,109,0,0,0-3.42,23.12,119,119,0,0,1-8.24,11.7,21.46,21.46,0,0,1-11.19,7.11c-4.33.88-6-1.48-5.74-4.54.41-8.7,6.08-31.62,13-55.11q10.52-14.93,20.65-30.14c7.9-11.77,16.05-23.46,23.08-35.78,6.87-12,12.66-25,14.59-38.85.81-5.82,1.18-11.8-.54-17.51-1.52-5.06-4.8-9.93-10.18-11.32-6.76-1.76-13,2.52-17.5,7.17A94,94,0,0,0,236.15,236c-7.3,12.14-12.66,25.46-17.76,38.64q-6.93,17.9-12.45,36.3a644.91,644.91,0,0,0-19.6,67.46c-.47.65-.06-.05-.47.65-8.75,15-22.79,32.27-35.65,43.36-9.65,8.33-22.88,12.73-35.78,8.7-7.66-2.39-12.43-9.36-14.82-16.46-2.81-8.32-3.47-17.27-3.28-26,.47-20.8,5.64-41.62,12.22-61.26,9.3-27.8,21.48-53.42,30.64-66.29,7.57-11.12,15.3-19.82,25.61-25.31a43.79,43.79,0,0,1,15.62-5.36c-15.53,15.24-40.63,46.9-33.82,76.61,1.7,7.2,6.78,12.38,14.7,12.92,6.43.71,14.11-2.39,19.83-6.72A66.71,66.71,0,0,0,205,282.55a64.28,64.28,0,0,0-.13-45.51c6.23-5,11.24-11.39,15.71-17.93,8.55-12.47,12.71-32.91,2.52-45.8a21.1,21.1,0,0,0-6.26-5.33,19.06,19.06,0,0,0-3.29-1.41c-1.93-.63-4.91-1.69-2.41,1.17,4.08,4.67,6.48,11.2,5.19,17.35-1.43,6.81-5.8,12.8-9.56,18.5a86,86,0,0,1-18.46,19.59c-2.59-2.26-6.3-4.16-10.22-3.83-15.67.42-30.11,8.49-43.45,19C121.6,248.76,110.38,262,101.4,275.43,93.74,287.2,85.94,303.35,80.18,321c-9.89,30.77-13.3,65.34-5.49,88.54,4.7,14,14,27.41,28.52,32.2,35.78,11.77,62.28-22.67,80.3-49.17-1.25,5.69-3.43,12.13-1.47,17.89a17.54,17.54,0,0,0,11.5,10.84c10,2.93,19.6-2.94,26.54-9.67a109.34,109.34,0,0,0,11.35-12.9c.84,3.76,2.66,9.12,6,11.53,3.94,3.11,10.54,4.46,15,2.65a35.55,35.55,0,0,0,4.91-2.51c7.55-4.26,15.38-13.08,22.56-23.58l2.06-3.14a11.57,11.57,0,0,0,0,3.95c1.08,7.56,4.92,13.84,12.62,15.55,20.1,4.45,37.53-16.56,41.65-34-1.91,8.09-1.44,20.45,7.52,24.23,4.06,1.71,8.76,1.38,12.92-.07,8.47-3,15.94-9.67,22-16.09,1.93-2.05,3.74-4.2,5.45-6.41-1.29,4.7-2.71,9.6-4.19,14.53-.19.64-1.6,1.6-2.09,2.09-.83.85-1.67,1.7-2.49,2.56-1.64,1.71-3.26,3.43-4.85,5.19-12.89,14.31-23.63,30.25-33.2,46.91-5.31,9.23-9.85,19.78-11.2,30.41-.62,5-.79,10.18,1.11,15,1.69,4.29,5.13,8.35,10.55,9.33,6.81,1.25,12.93-2.66,17.25-6.82a83.37,83.37,0,0,0,11.93-14.82c6.9-10.7,11.81-22.34,16.48-33.85q6.33-15.63,11.25-31.64c2.33-7.57,4.71-15.12,7.05-22.68l0-.06c3.33-4.73,7.84-8.47,12.07-12.42a139.55,139.55,0,0,0,33.13-47.48A169.75,169.75,0,0,1,406.58,371ZM224.65,323.74c4.41-13.59,8.84-26.84,13-40.49,3.76-12.31,7.62-24.86,12.88-36.6,2.4-5.34,9.67-22.61,17.36-13.39,4.34,5.2,1.28,15.17-.86,20.62a170.19,170.19,0,0,1-12.21,24.28c-5.32,8.95-10.8,17.81-16.35,26.63-5,7.91-11.61,18.65-16.19,26.78C222.37,331.27,224.65,323.76,224.65,323.74Zm-37-71.85c-.39,1.68-.53,6.06-1,8.39-.7,5.49-2.52,10.42-3.87,15.81-1.26,4.75-6.42,18.5-8.6,22.3-7.77,13.36-20,14.83-13.74-7a67.45,67.45,0,0,1,10.65-21.72A121.92,121.92,0,0,1,187.69,251.89Zm99.19,94c-3,14.27-7,32.85-18.52,43.43-5.24,4.81-13.32,5.48-18.44.18a7.11,7.11,0,0,1-1.52-3c-2.15-7.26-1.05-14.61.54-21.88a118.64,118.64,0,0,1,8.86-25.94c2.35-4.91,4.89-8.09,9.69-11,6.06-3.65,14.33-3.9,18.18,1.83C288.29,333.58,288.19,339.57,286.88,345.86Zm76.93,88.86c-3.36,10.71-6.8,21.63-11.67,31.91-2.22,4.68-8.92,19.78-16.91,12.16-4.51-4.3-1.78-13,.18-17.73,7.22-17.54,18.87-32.26,30.85-46.74,2-2.46,4.08-4.9,6.12-7.36.72-.86,2.11-2,2.47-3.11C370.89,415.69,367.54,422.84,363.81,434.72Z" transform="translate(-70.39 -149.56)"/><path class="cls-1" d="M520.17,282.53Z" transform="translate(-70.39 -149.56)"/><polygon class="cls-1" points="449.78 132.97 449.78 132.97 449.78 132.97 449.78 132.97"/><path class="cls-1" d="M622.51,167.56c-13.58-27.81-46.37-18.87-64.48-2-4.83,4.5-13,11.47-15.5,17.49,4-9.85,8.64-19.53,13.51-29.56.8-2-.47-2.31-2.67-2.76-32.82-5.92-63.62,11.23-85.85,30.53-16.88,14.6-28.12,33.15-23.58,52.39,2.48,10.63,10.39,21.35,16.82,21.84,3.7.44-1.28-1.85.67-15.79,3.63-27.84,38-74.61,66.77-79.6-26,48.58-41.78,105.36-54.42,156.87-4.08,16.61-5.83,24.68-9.5,39.74,0,.19-.1.38-.15.55-.08.38-.17.76-.25,1.14q0,.06,0,.15-1.2,5.4-2.34,10.83a5.87,5.87,0,0,0,0,3.73c.81,1.71,3,2.21,4.85,2.5q7.94,1.28,15.87,2.52c2.19.34,4.66.63,6.47-.65,1.51-1.07,2.17-2.95,2.7-4.73,8.37-28.11,12.47-57.35,19.07-85.89,0,0,1.3-6.15,1.3-6.16.19-.8,5.81-2.64,6.71-3.05,2.32-1.06,4.65-2.13,7-3.21,4.62-2.15,9.23-4.35,13.79-6.65a262.39,262.39,0,0,0,24.94-14.09c15.45-10,30-22.11,41.72-36.41a122.41,122.41,0,0,0,9.37-13c3.75-6,7.41-12.44,9-19.13A25.54,25.54,0,0,0,622.51,167.56Zm-31.16,18.38c-6,17.13-17.61,32.16-29.61,45.44-13.3,14.71-29,29.23-47.07,37.9,3.81-18.46,9.1-36.06,18.2-52.73,9.46-17.32,19.13-34.08,34.59-46.8,3.27-2.7,6.81-5.25,10.9-6.38s8.85-.6,11.95,2.29c3.8,3.53,4.15,9.51,2.81,14.51C592.61,182.12,592,184,591.35,185.94Z" transform="translate(-70.39 -149.56)"/><path class="cls-1" d="M705.2,199.08c-.3.36-.6.72-.88,1.08A2.9,2.9,0,0,0,705.2,199.08Z" transform="translate(-70.39 -149.56)"/><path class="cls-1" d="M663.33,276.66c3.65-13.34,8-26.45,12.59-39.49,1.25-3.13,2.09-6,3.21-9.15,3-1.87,6.78-2.29,10.24-2.83q6.24-1,12.54-1.37a132.47,132.47,0,0,1,25.18.83,68.2,68.2,0,0,0-44.48-5.12c-.25.32.22-.32,0,0,2.47-6.35,4.6-11.57,8.32-17a.19.19,0,0,0,0-.1.17.17,0,0,0,.1,0,4.14,4.14,0,0,0,1-5.34c-1-1.79-3-2.84-4.84-3.79L679,189.06a5.41,5.41,0,0,0-3.38-.89,5,5,0,0,0-2.33,1.4c-5.2,4.79-8.06,11.49-10.37,18-1.91,5.4-3.83,10.81-5.65,16.25-.42.21-.86.4-1.29.59a93.43,93.43,0,0,1-50.95,6.5,1.8,1.8,0,0,0-1.15.07c-.65.34-.66,1.25-.52,2,1,5.06,4.94,9,9.48,11.08,4.84,2.26,10.47,2.28,15.65,1.48a71.36,71.36,0,0,0,12.32-3.3c2.38-.82,4.75-1.69,7.11-2.58,1.19-.44,2.36-.89,3.54-1.34.16-.06.67-.3,1.3-.61-1.87,5.84-3.76,11.67-5.58,17.53-6.09,19.57-7.77,45.48-24.89,59.4-4.66,3.79-11.87,6.08-17.83,4.49,5.71-9.24,10.78-20.07,12.79-30.82,1.55-8.37.15-18.15-7-23.59-5.34-4.06-12.22-4.43-18.67-5a40.47,40.47,0,0,0-14.55.88c-8.55,2.41-14.66,8.16-19.3,15.51-5.65,8.94-9.32,19.15-11.73,29.41-2.46,11-4.64,23.57-1.51,34.71,2.08,7.41,8.19,13.84,16.07,14.71,14.69,1.64,27.79-13.89,35.76-24.21.19-.25,5.2.52,5.85.52a33.6,33.6,0,0,0,5.84-.48c11-1.86,19.09-9,24.68-18.32-.22,1.15-.42,2.31-.61,3.46-1.44,8.59-1.71,16.77,7.46,21.11,7.9,3.73,16.62,2.86,24-1.66,15.6-9.52,24.7-28,32.55-43.81a.69.69,0,0,0-1.24-.56c-.51.72-1.24,1.88-1.74,2.6-2.86,4-5.83,7.64-8.73,11.66-1.74,2.41-3.75,4.32-5.67,6.6a24.46,24.46,0,0,1-2.63,2.66,51,51,0,0,1-8.4,6.34c-3.67,2.08-11.32,4.73-13-1.31a11.25,11.25,0,0,1-.15-4C655.83,302.54,659.89,289.26,663.33,276.66Zm-91.83,66.5c-2.5,2-4.59,2.4-5.85,1.56-4.82-2.28-2.18-21.39-1.51-25.16a138.74,138.74,0,0,1,5.67-23.74c4.1,13,10.13,23,17.9,29.08.06.35.41.28.83.56C583.77,332.26,577.6,339.35,571.5,343.16Zm32.67-45a83.66,83.66,0,0,1-5.43,14c-1.16,2.43-2,4.15-2,4.15s-7.42-9.73-9.46-17.39c-2.23-8.36-3.36-16.86-1.43-25.42,6-1.21,13.29.25,16.84,5.52,2.61,3.86,3.22,8.79,2.65,13.41A41.77,41.77,0,0,1,604.17,298.2Z" transform="translate(-70.39 -149.56)"/><path class="cls-1" d="M491.1,409.23l.28-.33-.28.32Z" transform="translate(-70.39 -149.56)"/><path class="cls-1" d="M491.39,408.89c.07-.08.14-.15.2-.23h0A2.11,2.11,0,0,0,491.39,408.89Z" transform="translate(-70.39 -149.56)"/><path class="cls-1" d="M482.48,417.43l0,0-.06,0Z" transform="translate(-70.39 -149.56)"/></svg>