<svg xmlns="http://www.w3.org/2000/svg" viewBox="0 0 42.62 42.62"><defs><style>.cls-1{fill:#ffe7ad;}</style></defs><g id="Layer_2" data-name="Layer 2"><g id="ELEMENTS"><circle class="cls-1" cx="21.31" cy="21.31" r="21.31"/><path d="M21.31,3.62A17.69,17.69,0,1,0,39,21.31,17.69,17.69,0,0,0,21.31,3.62Zm-9,8.61h18a2.76,2.76,0,0,1,1.11.23,1,1,0,0,0-.23.18l-8.06,9.14a2.44,2.44,0,0,1-3.68,0l-8.21-9.3a.08.08,0,0,0,0,0A2.72,2.72,0,0,1,12.29,12.23ZM33.11,27.61a2.78,2.78,0,0,1-2.78,2.78h-18a2.77,2.77,0,0,1-2.78-2.78V15a2.7,2.7,0,0,1,.4-1.43l0,.06,8.2,9.3a4.2,4.2,0,0,0,6.31,0l8.06-9.14a.63.63,0,0,0,.16-.27A2.78,2.78,0,0,1,33.11,15Z"/></g></g></svg>