<svg xmlns="http://www.w3.org/2000/svg" viewBox="0 0 42.62 42.62"><defs><style>.cls-1{fill:#ffe7ad;}</style></defs><g id="Layer_2" data-name="Layer 2"><g id="ELEMENTS"><circle class="cls-1" cx="21.31" cy="21.31" r="21.31"/><path d="M21.31,3.62A17.69,17.69,0,1,0,39,21.31,17.69,17.69,0,0,0,21.31,3.62Zm11.09,24a5.21,5.21,0,0,1-3.92,2.92,8.13,8.13,0,0,1-4.32-.69,17.59,17.59,0,0,1-3.72-1.76,21.27,21.27,0,0,1-6-5.54,24.07,24.07,0,0,1-1.37-2.08,11.4,11.4,0,0,1-1.32-3,6.27,6.27,0,0,1-.17-1.37,5.44,5.44,0,0,1,1.89-4.32,2.48,2.48,0,0,1,2.69-.4c.91.51,1.38,1.81,1.81,2.72a4.59,4.59,0,0,1,.57,2.45,4.69,4.69,0,0,1-1.28,2.06.87.87,0,0,0-.11,1.18,14,14,0,0,0,7,6,.77.77,0,0,0,1-.21c.52-.65,1-1.91,1.84-2.24,1.05-.43,2.21.17,3.1.7s2.22,1.11,2.45,2.13A2.55,2.55,0,0,1,32.4,27.61Z"/></g></g></svg>